<svg xmlns="http://www.w3.org/2000/svg" width="3.5in" height="1.25in" viewBox="0 0 1008 360">
  <!-- Dark navy background w/ thin cyan inset frame -->
  <rect x="0" y="0" width="1008" height="360" rx="10" fill="#0D1B2A"/>
  <rect x="3" y="3" width="1002" height="354" rx="8" fill="none" stroke="#00B4D8" stroke-width="1.2" opacity="0.4"/>

  <!-- Left brand column divider -->
  <line x1="160" y1="24" x2="160" y2="336" stroke="#00B4D8" stroke-width="0.9" opacity="0.25"/>

  <!-- Mandala logo (scaled ~1.5x from peptide label) -->
  <g transform="translate(80, 120)">
    <polygon points="0,-44 38,-22 38,22 0,44 -38,22 -38,-22" fill="none" stroke="#00B4D8" stroke-width="1.4" opacity="0.25"/>
    <polygon points="0,-28.6 24.8,-14.3 24.8,14.3 0,28.6 -24.8,14.3 -24.8,-14.3" fill="none" stroke="#00B4D8" stroke-width="1.4" opacity="0.5"/>
    <polygon points="0,-15.4 13.4,-7.7 13.4,7.7 0,15.4 -13.4,7.7 -13.4,-7.7" fill="none" stroke="#00B4D8" stroke-width="1.7" opacity="0.8"/>
    <circle cx="0" cy="-44" r="3.2" fill="#00B4D8" opacity="0.6"/>
    <circle cx="38" cy="-22" r="3.2" fill="#00B4D8" opacity="0.5"/>
    <circle cx="38" cy="22" r="3.2" fill="#0077B6" opacity="0.5"/>
    <circle cx="0" cy="44" r="3.2" fill="#0077B6" opacity="0.6"/>
    <circle cx="-38" cy="22" r="3.2" fill="#0077B6" opacity="0.5"/>
    <circle cx="-38" cy="-22" r="3.2" fill="#00B4D8" opacity="0.5"/>
    <circle cx="0" cy="0" r="5" fill="#00B4D8"/>
    <circle cx="0" cy="0" r="2.6" fill="#0D1B2A"/>
    <polygon points="0,-38 9,-28 -9,-28" fill="none" stroke="#00B4D8" stroke-width="1" opacity="0.6"/>
    <polygon points="0,38 9,28 -9,28" fill="none" stroke="#0077B6" stroke-width="1" opacity="0.6"/>
  </g>

  <!-- Brand text (no "PEPTIDES") -->
  <text x="80" y="206" text-anchor="middle" font-family="'Helvetica Neue', Arial, sans-serif" font-size="16" font-weight="700" fill="#FFFFFF" letter-spacing="2.6">SYNGYN</text>
  <text x="80" y="224" text-anchor="middle" font-family="'Helvetica Neue', Arial, sans-serif" font-size="8" font-weight="400" fill="#90CAF9" letter-spacing="1.4">ANALYTICAL REFERENCE</text>

  <!-- Product name + descriptor -->
  <text x="184" y="72" font-family="'Helvetica Neue', Arial, sans-serif" font-size="48" font-weight="800" fill="#FFFFFF" letter-spacing="1.5">Anastrozole</text>
  <line x1="184" y1="84" x2="620" y2="84" stroke="#00B4D8" stroke-width="2" opacity="0.6"/>
  <text x="184" y="108" font-family="'Helvetica Neue', Arial, sans-serif" font-size="13" font-weight="500" fill="#90CAF9" letter-spacing="0.8">Aromatase Inhibitor (AI) &#xB7; Oral Tablets</text>

  <!-- Strength band (highlighted — key customer-facing number) -->
  <rect x="184" y="128" width="380" height="44" rx="4" fill="#00B4D8" opacity="0.18"/>
  <rect x="184" y="128" width="380" height="44" rx="4" fill="none" stroke="#00B4D8" stroke-width="1" opacity="0.7"/>
  <text x="204" y="158" font-family="'Helvetica Neue', Arial, sans-serif" font-size="24" font-weight="800" fill="#00B4D8" letter-spacing="0.8">1 mg</text>
  <text x="360" y="158" font-family="'Helvetica Neue', Arial, sans-serif" font-size="15" font-weight="500" fill="#FFFFFF" opacity="0.85">30 Tablets</text>

  <!-- Storage line -->
  <text x="184" y="198" font-family="'Helvetica Neue', Arial, sans-serif" font-size="11" font-weight="500" fill="#7BA3C4" letter-spacing="0.3">Store at room temperature &#xB7; Keep sealed &#xB7; Avoid heat &amp; light</text>

  <!-- Divider -->
  <line x1="184" y1="214" x2="980" y2="214" stroke="#00B4D8" stroke-width="0.6" opacity="0.25"/>

  <!-- RUO header (red, high contrast) -->
  <text x="184" y="246" font-family="'Helvetica Neue', Arial, sans-serif" font-size="14" font-weight="700" fill="#FF4D6D" letter-spacing="1">FOR RESEARCH USE ONLY</text>
  <text x="184" y="268" font-family="'Helvetica Neue', Arial, sans-serif" font-size="10" font-weight="500" fill="#FF8FA3" letter-spacing="0.3">Not for human consumption. Not a drug, food, or cosmetic.</text>

  <!-- Footer: website + SKU + count -->
  <text x="184" y="330" font-family="'Helvetica Neue', Arial, sans-serif" font-size="11" font-weight="500" fill="#90CAF9" opacity="0.78" letter-spacing="0.4">syngyn.co</text>
  <text x="980" y="330" text-anchor="end" font-family="'Helvetica Neue', Arial, sans-serif" font-size="11" font-weight="500" fill="#7BA3C4" opacity="0.72">OP-ANA-1MG &#xB7; 30 Tablets</text>
</svg>